# xmcd
# 
# Track frame offsets:
#     150
#     13680
#     30849
#     43810
#     56757
#     70074
#     84613
#     100071
#     113922
#     127364
#     141644
#     154639
#     167747
#     179778
#     192205
#     204562
#     216557
#     228060
#     239760
#     251996
#     264100
#     278175
#     290808
#     303626
#     315981
#     328603
# 
# Disc length: 4539
# 
# Revision: 1
# Processed by: cddbd v1.5.2PL0 Copyright (c) Steve Scherf et al.
# Submitted via: fre:ac v1.0.31
# 
DISCID=9211b91a
DTITLE=America - Epic Americana: Pre-War Blues, Country and Folk Disc 2
DYEAR=2016
DGENRE=Country
TTITLE0=Arkansas Traveler
TTITLE1=Darling Cora
TTITLE2=Don't Let Your Deal Go Down
TTITLE3=Worthy Of Estimation
TTITLE4=Dance All Night With A Bottle In Your Hand
TTITLE5=Wildwood Flower
TTITLE6=Blue Yodel
TTITLE7=K.C. Blues
TTITLE8=Blue Railroad Train
TTITLE9=I Wanna Be A Cowboy's Sweetheart
TTITLE10=Somebody's Been Using That Thing
TTITLE11=Banjo Pickin' Girl
TTITLE12=Peacock Rag
TTITLE13=Cool Water
TTITLE14=Mule Skinner Blues
TTITLE15=Time Changes Everything
TTITLE16=I Ain't Goin' Honky Tonkin' Anymore
TTITLE17=Fireball Mail
TTITLE18=1942 Turkey In The Straw
TTITLE19=Ruby
TTITLE20=Little Glass Of Wine
TTITLE21=Tramp On The Street
TTITLE22=Guitar Blues
TTITLE23=George's Playhouse
TTITLE24=I'm So Lonesome I Could Cry
TTITLE25=Jesus Hits Like An Atom Bomb
EXTD=
EXTT0=
EXTT1=
EXTT2=
EXTT3=
EXTT4=
EXTT5=
EXTT6=
EXTT7=
EXTT8=
EXTT9=
EXTT10=
EXTT11=
EXTT12=
EXTT13=
EXTT14=
EXTT15=
EXTT16=
EXTT17=
EXTT18=
EXTT19=
EXTT20=
EXTT21=
EXTT22=
EXTT23=
EXTT24=
EXTT25=
PLAYORDER=
